<?xml version="1.0" encoding="UTF-8"?>
<svg width="20px" height="20px" viewBox="0 0 20 20" version="1.1" xmlns="http://www.w3.org/2000/svg" xmlns:xlink="http://www.w3.org/1999/xlink">
    <!-- Generator: Sketch 52.2 (67145) - http://www.bohemiancoding.com/sketch -->
    <title>icon/xinzeng</title>
    <desc>Created with Sketch.</desc>
    <g id="icon/xinzeng" stroke="none" stroke-width="1" fill="none" fill-rule="evenodd">
        <g>
            <rect id="Rectangle-2" fill-rule="nonzero" x="0" y="0" width="20" height="20"></rect>
            <path d="M9,9 L9,3.5 C9,3.22385763 9.22385763,3 9.5,3 L10.5,3 C10.7761424,3 11,3.22385763 11,3.5 L11,9 L16.5,9 C16.7761424,9 17,9.22385763 17,9.5 L17,10.5 C17,10.7761424 16.7761424,11 16.5,11 L11,11 L11,16.5 C11,16.7761424 10.7761424,17 10.5,17 L9.5,17 C9.22385763,17 9,16.7761424 9,16.5 L9,11 L3.5,11 C3.22385763,11 3,10.7761424 3,10.5 L3,9.5 C3,9.22385763 3.22385763,9 3.5,9 L9,9 Z" id="Combined-Shape" fill="#303A60"></path>
        </g>
    </g>
</svg>