<?xml version="1.0" encoding="UTF-8"?>
<svg width="40px" height="40px" viewBox="0 0 40 40" version="1.1" xmlns="http://www.w3.org/2000/svg" xmlns:xlink="http://www.w3.org/1999/xlink">
    <!-- Generator: Sketch 50.2 (55047) - http://www.bohemiancoding.com/sketch -->
    <title>icon/people1</title>
    <desc>Created with Sketch.</desc>
    <defs></defs>
    <g id="icon/people1" stroke="none" stroke-width="1" fill="none" fill-rule="evenodd">
        <g id="people1">
            <rect id="Rectangle-4" fill-opacity="0" fill="#D8D8D8" x="0" y="0" width="40" height="40"></rect>
            <path d="M25.484375,27.59375 L26.1171875,27.9453125 C26.5390646,28.1796887 26.75,28.4843731 26.75,28.859375 L26.75,30.7578125 C26.75,31.1171893 26.6250013,31.4179675 26.375,31.6601562 C26.1249987,31.902345 25.8281267,32.0234375 25.484375,32.0234375 L9.265625,32.0234375 C8.92187328,32.0234375 8.62500125,31.902345 8.375,31.6601562 C8.12499875,31.4179675 8,31.1171893 8,30.7578125 L8,28.859375 C8,28.5156233 8.21093539,28.2187512 8.6328125,27.96875 L9.265625,27.59375 L14.1171875,24.96875 C13.226558,24.2656215 12.6093767,23.3281309 12.265625,22.15625 C11.9218733,20.9843691 11.75,20.0546909 11.75,19.3671875 L11.75,16.203125 C11.75,15.6718723 11.9140609,15.1445339 12.2421875,14.6210938 C12.5703141,14.0976536 12.9999973,13.6250021 13.53125,13.203125 C14.0625027,12.7812479 14.6679654,12.4375013 15.3476562,12.171875 C16.0273471,11.9062487 16.7109341,11.7734375 17.3984375,11.7734375 C18.101566,11.7734375 18.7890591,11.9062487 19.4609375,12.171875 C20.1328159,12.4375013 20.7304661,12.7812479 21.2539062,13.203125 C21.7773464,13.6250021 22.1992171,14.0976536 22.5195312,14.6210938 C22.8398454,15.1445339 23,15.6718723 23,16.203125 L23,19.3671875 C23,20.1328163 22.8476578,21.0859318 22.5429688,22.2265625 C22.2382797,23.3671932 21.6484419,24.289059 20.7734375,24.9921875 L25.484375,27.59375 Z M30.734375,23.8671875 L31.3671875,24.21875 C31.7890646,24.4531262 32,24.7578106 32,25.1328125 L32,27.0078125 C32,27.3671893 31.8750013,27.6679675 31.625,27.9101562 C31.3749987,28.152345 31.0781267,28.2734375 30.734375,28.2734375 L28.25,28.2734375 C28.1562495,27.9453109 28.0585943,27.6562512 27.9570312,27.40625 C27.8554682,27.1562488 27.6953136,26.9453134 27.4765625,26.7734375 L30.5,26.7734375 L30.5,25.4375 C30.4531248,25.4062498 30.3984378,25.3710939 30.3359375,25.3320312 C30.2734372,25.2929686 30.2109378,25.2656251 30.1484375,25.25 C30.1328124,25.2343749 30.1132814,25.2226563 30.0898438,25.2148438 C30.0664061,25.2070312 30.0390627,25.1953126 30.0078125,25.1796875 L25.2265625,22.578125 C25.0078114,22.4531244 24.8281257,22.2851573 24.6875,22.0742188 C24.5468743,21.8632802 24.4687501,21.6328137 24.453125,21.3828125 C24.4218748,21.1328113 24.4570307,20.8906262 24.5585938,20.65625 C24.6601568,20.4218738 24.812499,20.2265633 25.015625,20.0703125 C25.6562532,19.5546849 26.1054675,18.8320359 26.3632812,17.9023438 C26.621095,16.9726516 26.75,16.2187529 26.75,15.640625 L26.75,12.4765625 C26.75,11.9140597 26.3281292,11.2812535 25.484375,10.578125 C24.6406208,9.87499648 23.6718805,9.5234375 22.578125,9.5234375 C22.0468723,9.5234375 21.5351587,9.60937414 21.0429688,9.78125 C20.5507788,9.95312586 20.109377,10.1874985 19.71875,10.484375 C19.4218735,10.3906245 19.1093766,10.3359376 18.78125,10.3203125 C18.4531234,10.3046874 18.1328141,10.2890626 17.8203125,10.2734375 C18.3671902,9.6328093 19.0703082,9.09375219 19.9296875,8.65625 C20.7890668,8.21874781 21.6718705,8 22.578125,8 C23.2812535,8 23.9726529,8.13671738 24.6523438,8.41015625 C25.3320346,8.68359512 25.9374973,9.03124789 26.46875,9.453125 C27.0000027,9.87500211 27.4296859,10.3515598 27.7578125,10.8828125 C28.0859391,11.4140652 28.25,11.9453098 28.25,12.4765625 L28.25,15.640625 C28.25,16.3906287 28.0859391,17.339838 27.7578125,18.4882812 C27.4296859,19.6367245 26.8281294,20.5546841 25.953125,21.2421875 L30.734375,23.8671875 Z" id="People---simple-line-icons" fill="#FFFFFF"></path>
        </g>
    </g>
</svg>
