<?xml version="1.0" encoding="utf-8"?>
<!-- Generator: Adobe Illustrator 17.0.0, SVG Export Plug-In . SVG Version: 6.00 Build 0)  -->
<!DOCTYPE svg PUBLIC "-//W3C//DTD SVG 1.1//EN" "http://www.w3.org/Graphics/SVG/1.1/DTD/svg11.dtd">
<svg version="1.1" id="Capa_1" xmlns="http://www.w3.org/2000/svg" xmlns:xlink="http://www.w3.org/1999/xlink" x="0px" y="0px"
	 width="22.505px" height="26.738px" viewBox="0 0 22.505 26.738" enable-background="new 0 0 22.505 26.738" xml:space="preserve">
<path d="M14.35,5.957H4.095V4.233H14.35V5.957z M18.375,4.233h-2.546v1.724h2.546V4.233z M4.095,9.26h14.281V7.536H4.095V9.26z
	 M10.908,10.84v1.724h7.467V10.84H10.908z M9.463,10.84H4.095v1.724h5.368V10.84z M4.095,15.867h14.281v-1.724H4.095V15.867z
	 M12.182,17.446H4.095v1.724h8.087V17.446z M13.592,17.446v1.724h4.783v-1.724H13.592z M4.095,22.474h14.281V20.75H4.095V22.474z
	 M22.505,3.167v20.404c0,1.746-1.244,3.167-2.773,3.167H2.773C1.244,26.738,0,25.317,0,23.571V3.167C0,1.421,1.244,0,2.773,0h16.959
	C21.261,0,22.505,1.421,22.505,3.167z M20.853,3.167c0-0.821-0.513-1.515-1.121-1.515H2.773c-0.608,0-1.121,0.694-1.121,1.515
	v20.404c0,0.821,0.513,1.515,1.121,1.515h16.959c0.608,0,1.121-0.694,1.121-1.515V3.167z" fill="#ffffff"/>
</svg>
