<?xml version="1.0" encoding="UTF-8"?>
<svg width="40px" height="40px" viewBox="0 0 40 40" version="1.1" xmlns="http://www.w3.org/2000/svg" xmlns:xlink="http://www.w3.org/1999/xlink">
    <!-- Generator: Sketch 50.2 (55047) - http://www.bohemiancoding.com/sketch -->
    <title>icon/people2</title>
    <desc>Created with Sketch.</desc>
    <defs></defs>
    <g id="icon/people2" stroke="none" stroke-width="1" fill="none" fill-rule="evenodd">
        <g id="people2">
            <rect id="Rectangle-4" fill-opacity="0" fill="#D8D8D8" x="0" y="0" width="40" height="40"></rect>
            <path d="M25.484375,28.0703125 L26.1171875,28.421875 C26.5390646,28.6562512 26.75,28.9609356 26.75,29.3359375 L26.75,31.234375 C26.75,31.5937518 26.6250013,31.89453 26.375,32.1367188 C26.1249987,32.3789075 25.8281267,32.5 25.484375,32.5 L9.265625,32.5 C8.92187328,32.5 8.62500125,32.3789075 8.375,32.1367188 C8.12499875,31.89453 8,31.5937518 8,31.234375 L8,29.3359375 C8,28.9921858 8.21093539,28.6953137 8.6328125,28.4453125 L9.265625,28.0703125 L14.1171875,25.4453125 C13.226558,24.742184 12.6093767,23.8046934 12.265625,22.6328125 C11.9218733,21.4609316 11.75,20.5312534 11.75,19.84375 L11.75,16.6796875 C11.75,16.1484348 11.9140609,15.6210964 12.2421875,15.0976562 C12.5703141,14.5742161 12.9999973,14.1015646 13.53125,13.6796875 C14.0625027,13.2578104 14.6679654,12.9140638 15.3476562,12.6484375 C16.0273471,12.3828112 16.7109341,12.25 17.3984375,12.25 C18.101566,12.25 18.7890591,12.3828112 19.4609375,12.6484375 C20.1328159,12.9140638 20.7304661,13.2578104 21.2539062,13.6796875 C21.7773464,14.1015646 22.1992171,14.5742161 22.5195312,15.0976562 C22.8398454,15.6210964 23,16.1484348 23,16.6796875 L23,19.84375 C23,20.6093788 22.8476578,21.5624943 22.5429688,22.703125 C22.2382797,23.8437557 21.6484419,24.7656215 20.7734375,25.46875 L25.484375,28.0703125 Z M25.25,31 L25.25,29.6640625 C25.2031248,29.6171873 25.1484378,29.5781252 25.0859375,29.546875 L24.8984375,29.453125 C24.8828124,29.453125 24.8632814,29.4453126 24.8398438,29.4296875 C24.8164061,29.4140624 24.7890627,29.3984376 24.7578125,29.3828125 L20.046875,26.78125 C19.8281239,26.6562494 19.6484382,26.4882823 19.5078125,26.2773438 C19.3671868,26.0664052 19.2890626,25.8359387 19.2734375,25.5859375 C19.2421873,25.3359363 19.2773432,25.0937512 19.3789062,24.859375 C19.4804693,24.6249988 19.6328115,24.4296883 19.8359375,24.2734375 C20.4765657,23.773435 20.9140613,23.0585984 21.1484375,22.1289062 C21.3828137,21.1992141 21.5,20.437503 21.5,19.84375 L21.5,16.6796875 C21.5,16.1328098 21.0898479,15.507816 20.2695312,14.8046875 C19.4492146,14.101559 18.492193,13.75 17.3984375,13.75 C16.3359322,13.75 15.3789105,14.101559 14.5273438,14.8046875 C13.675777,15.507816 13.25,16.1328098 13.25,16.6796875 L13.25,19.84375 C13.25,20.437503 13.3906236,21.1992141 13.671875,22.1289062 C13.9531264,23.0585984 14.4140593,23.773435 15.0546875,24.2734375 C15.2421884,24.4296883 15.3867182,24.6249988 15.4882812,24.859375 C15.5898443,25.0937512 15.6250002,25.3359363 15.59375,25.5859375 C15.5781249,25.8359387 15.5000007,26.0664052 15.359375,26.2773438 C15.2187493,26.4882823 15.0390636,26.648437 14.8203125,26.7578125 L9.96875,29.40625 C9.95312492,29.40625 9.93750008,29.4101562 9.921875,29.4179688 C9.90624992,29.4257813 9.89062508,29.4374999 9.875,29.453125 C9.81249969,29.4687501 9.7460941,29.4999998 9.67578125,29.546875 L9.5,29.6640625 L9.5,31 L25.25,31 Z M30.734375,24.34375 L31.3671875,24.6953125 C31.7890646,24.9296887 32,25.2343731 32,25.609375 L32,27.484375 C32,27.8437518 31.8750013,28.14453 31.625,28.3867188 C31.3749987,28.6289075 31.0781267,28.75 30.734375,28.75 L28.25,28.75 C28.1562495,28.4218734 28.0585943,28.1328137 27.9570312,27.8828125 C27.8554682,27.6328113 27.6953136,27.4218759 27.4765625,27.25 L30.5,27.25 L30.5,25.9140625 C30.4531248,25.8828123 30.3984378,25.8476564 30.3359375,25.8085938 C30.2734372,25.7695311 30.2109378,25.7421876 30.1484375,25.7265625 C30.1328124,25.7109374 30.1132814,25.6992188 30.0898438,25.6914062 C30.0664061,25.6835937 30.0390627,25.6718751 30.0078125,25.65625 L25.2265625,23.0546875 C25.0078114,22.9296869 24.8281257,22.7617198 24.6875,22.5507812 C24.5468743,22.3398427 24.4687501,22.1093762 24.453125,21.859375 C24.4218748,21.6093738 24.4570307,21.3671887 24.5585938,21.1328125 C24.6601568,20.8984363 24.812499,20.7031258 25.015625,20.546875 C25.6562532,20.0312474 26.1054675,19.3085984 26.3632812,18.3789062 C26.621095,17.4492141 26.75,16.6953154 26.75,16.1171875 L26.75,12.953125 C26.75,12.3906222 26.3281292,11.757816 25.484375,11.0546875 C24.6406208,10.351559 23.6718805,10 22.578125,10 C22.0468723,10 21.5351587,10.0859366 21.0429688,10.2578125 C20.5507788,10.4296884 20.109377,10.664061 19.71875,10.9609375 C19.4218735,10.867187 19.1093766,10.8125001 18.78125,10.796875 C18.4531234,10.7812499 18.1328141,10.7656251 17.8203125,10.75 C18.3671902,10.1093718 19.0703082,9.57031469 19.9296875,9.1328125 C20.7890668,8.69531031 21.6718705,8.4765625 22.578125,8.4765625 C23.2812535,8.4765625 23.9726529,8.61327988 24.6523438,8.88671875 C25.3320346,9.16015762 25.9374973,9.50781039 26.46875,9.9296875 C27.0000027,10.3515646 27.4296859,10.8281223 27.7578125,11.359375 C28.0859391,11.8906277 28.25,12.4218723 28.25,12.953125 L28.25,16.1171875 C28.25,16.8671912 28.0859391,17.8164005 27.7578125,18.9648438 C27.4296859,20.113287 26.8281294,21.0312466 25.953125,21.71875 L30.734375,24.34375 Z" id="People---simple-line-icons" fill="#FFFFFF" opacity="0.5"></path>
        </g>
    </g>
</svg>