<?xml version="1.0" encoding="UTF-8"?>
<svg width="60px" height="60px" viewBox="0 0 60 60" version="1.1" xmlns="http://www.w3.org/2000/svg" xmlns:xlink="http://www.w3.org/1999/xlink">
    <!-- Generator: Sketch 52.2 (67145) - http://www.bohemiancoding.com/sketch -->
    <title>icon/paizhao</title>
    <desc>Created with Sketch.</desc>
    <defs>
        <polygon id="path-1" points="0 0.000136550019 30.5846 0.000136550019 30.5846 28.2231515 0 28.2231515"></polygon>
    </defs>
    <g id="icon/paizhao" stroke="none" stroke-width="1" fill="none" fill-rule="evenodd">
        <rect id="Rectangle-Copy-2" fill="#FFFFFF" fill-rule="nonzero" x="0" y="0" width="60" height="60" rx="2"></rect>
        <g id="Group-3" transform="translate(15.000000, 16.000000)">
            <mask id="mask-2" fill="white">
                <use xlink:href="#path-1"></use>
            </mask>
            <g id="Clip-2"></g>
            <path d="M24.9050457,8.85071212 C24.1424457,8.71801515 22.8599314,9.15125758 22.9281314,7.85680303 C22.9830457,6.8295 24.16636,7.08083333 24.9236457,7.09313636 C25.7278743,7.10719697 26.9891314,6.78028788 26.9235886,8.06156061 C26.86956,9.12840909 25.6800457,8.73383333 24.9050457,8.85071212 M15.1683886,21.6485 C11.8575886,21.6528939 9.17121714,19.0859545 9.19158857,15.9372576 C9.21461714,12.5222879 11.8017886,9.81386364 15.0815886,9.77080303 C18.4517314,9.72774242 21.2532457,12.5671061 21.1770743,15.947803 C21.1017886,19.2300758 18.5571314,21.6441061 15.1683886,21.6485 M30.5807029,9.67589394 C30.5807029,3.43474242 30.45936,3.31083333 24.17256,3.1974697 C23.2930457,3.18165152 22.2762457,3.35477273 21.8874171,2.30637879 C21.0893886,0.152469697 19.4348743,-0.0953484848 17.4349314,0.0250454545 C15.4500457,0.144560606 13.4501029,0.0997424242 11.4590171,0.0338333333 C10.2872171,-0.00395454545 9.35367429,0.368651515 8.95156,1.4284697 C8.33333143,3.05510606 7.15267429,3.36268182 5.61418857,3.20889394 C4.88436,3.13683333 4.13770286,3.16671212 3.40256,3.20889394 C0.836645714,3.3565303 0.0182457143,4.19401515 0.0120457143,6.7425 C-0.00389714286,12.820197 -0.00566857143,18.8978939 0.0138171429,24.9755909 C0.0226742857,27.5680152 0.65596,28.190197 3.30867429,28.2077727 C7.21998857,28.2358939 11.1313029,28.2156818 15.0426171,28.2156818 C19.0283314,28.2165606 23.01316,28.2358939 26.9988743,28.2095303 C29.6489314,28.1919545 30.5603314,27.2762576 30.5718457,24.6135303 C30.5948743,19.6343182 30.5798171,14.6551061 30.5807029,9.67589394" id="Fill-1" fill="#303A60" mask="url(#mask-2)"></path>
        </g>
    </g>
</svg>