<?xml version="1.0" encoding="UTF-8"?>
<svg width="40px" height="40px" viewBox="0 0 40 40" version="1.1" xmlns="http://www.w3.org/2000/svg" xmlns:xlink="http://www.w3.org/1999/xlink">
    <!-- Generator: Sketch 50.2 (55047) - http://www.bohemiancoding.com/sketch -->
    <title>icon/recent1</title>
    <desc>Created with Sketch.</desc>
    <defs></defs>
    <g id="icon/recent1" stroke="none" stroke-width="1" fill="none" fill-rule="evenodd">
        <g id="recent1">
            <rect id="Rectangle-4-Copy" fill-opacity="0" fill="#D8D8D8" x="0" y="0" width="40" height="40"></rect>
            <path d="M20,10 C21.6562583,10 23.2148364,10.2343727 24.6757812,10.703125 C26.1367261,11.1718773 27.4101508,11.8164021 28.4960938,12.6367188 C29.5820367,13.4570354 30.4374969,14.4101508 31.0625,15.4960938 C31.6875031,16.5820367 32,17.7499937 32,19 C32,20.2500063 31.6875031,21.4179633 31.0625,22.5039062 C30.4374969,23.5898492 29.5820367,24.5429646 28.4960938,25.3632812 C27.4101508,26.1835979 26.1367261,26.8281227 24.6757812,27.296875 C23.2148364,27.7656273 21.6562583,28 20,28 L19.3671875,28 C19.1484364,28 18.9414072,27.9960938 18.7460938,27.9882812 C18.5507803,27.9804687 18.3203138,27.9531252 18.0546875,27.90625 C17.9296869,28.0625008 17.6835956,28.2929672 17.3164062,28.5976562 C16.9492169,28.9023453 16.5156275,29.2148421 16.015625,29.5351562 C15.5156225,29.8554704 14.9726592,30.1523424 14.3867188,30.4257812 C13.8007783,30.6992201 13.2109405,30.8906245 12.6171875,31 L12.4296875,31 C12.2421866,31 12.0820319,30.9335944 11.9492188,30.8007812 C11.8164056,30.6679681 11.75,30.5078134 11.75,30.3203125 C11.75,30.2734373 11.7539062,30.2265627 11.7617188,30.1796875 C11.7695313,30.1328123 11.7812499,30.0937502 11.796875,30.0625 C12.0156261,29.671873 12.2695298,29.1445346 12.5585938,28.4804688 C12.8476577,27.8164029 12.9921875,27.1484409 12.9921875,26.4765625 C13.0117188,26.4335937 13.015625,26.4218751 13.015625,26.40625 C12.218746,25.999998 11.5078156,25.5312527 10.8828125,25 C10.2578094,24.4687473 9.73437711,23.8867219 9.3125,23.2539062 C8.89062289,22.6210906 8.56640738,21.9492223 8.33984375,21.2382812 C8.11328012,20.5273402 8,19.7812539 8,19 C8,17.7499937 8.31249688,16.5820367 8.9375,15.4960938 C9.56250312,14.4101508 10.4179633,13.4570354 11.5039062,12.6367188 C12.5898492,11.8164021 13.8632739,11.1718773 15.3242188,10.703125 C16.7851636,10.2343727 18.3437417,10 20,10 Z" id="Bubble---simple-line-icons" fill="#FFFFFF"></path>
        </g>
    </g>
</svg>