<?xml version="1.0" encoding="UTF-8"?>
<svg width="40px" height="40px" viewBox="0 0 40 40" version="1.1" xmlns="http://www.w3.org/2000/svg" xmlns:xlink="http://www.w3.org/1999/xlink">
    <!-- Generator: Sketch 50.2 (55047) - http://www.bohemiancoding.com/sketch -->
    <title>icon/qun</title>
    <desc>Created with Sketch.</desc>
    <defs></defs>
    <g id="icon/qun" stroke="none" stroke-width="1" fill="none" fill-rule="evenodd">
        <g id="Group-6">
            <rect id="Rectangle-5" x="0" y="0" width="40" height="40"></rect>
            <path d="M26.2890625,25.6860797 C27.2734424,26.0610815 28.0585908,26.6587318 28.6445312,27.4790484 C29.2304717,28.299365 29.5234375,29.225137 29.5234375,30.2563922 L9.9765625,30.2563922 C9.9765625,28.5688837 10.6093687,27.2798341 11.875,26.3892047 C12.3437523,26.061078 13.4921784,25.6860818 15.3203125,25.2642047 C16.4453181,25.1235789 17.054687,24.8188945 17.1484375,24.3501422 C17.1953127,24.1626412 17.21875,23.6235841 17.21875,22.7329547 C17.21875,22.5923289 17.1718755,22.4751426 17.078125,22.3813922 C16.8906241,22.1938912 16.7031259,21.8657695 16.515625,21.3970172 C16.4218745,21.0220153 16.3281255,20.4595209 16.234375,19.7095172 C16.0468741,19.7563924 15.8945318,19.6860806 15.7773438,19.4985797 C15.6601557,19.3110787 15.5664066,19.0649874 15.4960938,18.7602984 C15.4257809,18.4556094 15.390625,18.2798299 15.390625,18.2329547 C15.2031241,17.2016995 15.2734359,16.7095169 15.6015625,16.7563922 C15.4609368,16.5688912 15.3437505,16.1235832 15.25,15.4204547 C15.1093743,14.3891995 15.1796861,13.4751461 15.4609375,12.6782672 C15.7890641,11.7876377 16.3749958,11.107957 17.21875,10.6392047 C18.0625042,10.1704523 18.9765576,9.95951692 19.9609375,10.0063922 C20.8984422,10.0532674 21.7539024,10.3345146 22.5273438,10.8501422 C23.3007851,11.3657697 23.8281236,12.0688877 24.109375,12.9595172 C24.3437512,13.6157704 24.3671884,14.5298238 24.1796875,15.7017047 C24.085937,16.2642075 23.992188,16.6157664 23.8984375,16.7563922 C24.0390632,16.7095169 24.1445309,16.7563914 24.2148438,16.8970172 C24.2851566,17.0376429 24.3085939,17.2134223 24.2851562,17.4243609 C24.2617186,17.6352995 24.2382814,17.8227976 24.2148438,17.9868609 C24.1914061,18.1509242 24.1562502,18.2798292 24.109375,18.3735797 L23.96875,18.8657672 C23.9218748,19.1938938 23.8398443,19.4282664 23.7226562,19.5688922 C23.6054682,19.7095179 23.4531259,19.7563924 23.265625,19.7095172 C23.1718745,20.7407723 23.0078137,21.4673275 22.7734375,21.8892047 C22.7734375,21.9360799 22.6914071,22.0532662 22.5273438,22.2407672 C22.3632804,22.4282681 22.28125,22.5454544 22.28125,22.5923297 L22.28125,23.3657672 C22.28125,23.8345195 22.3281245,24.1860785 22.421875,24.4204547 C22.5156255,24.6548308 22.8437472,24.8423289 23.40625,24.9829547 C23.7343766,25.1235804 24.2148406,25.2407667 24.8476562,25.3345172 C25.4804719,25.4282676 25.9609359,25.5454539 26.2890625,25.6860797 Z M12.0859375,27.7251422 C11.6640604,28.1470193 11.3828132,28.6157646 11.2421875,29.1313922 L28.2578125,29.1313922 C27.9765611,28.100137 27.2734431,27.3267072 26.1484375,26.8110797 C25.8203109,26.6704539 25.3281283,26.5532676 24.671875,26.4595172 C24.0156217,26.3657667 23.5468764,26.2720176 23.265625,26.1782672 C22.8437479,25.9907662 22.5390634,25.8618613 22.3515625,25.7915484 C22.1640616,25.7212355 21.9531262,25.5571747 21.71875,25.2993609 C21.4843738,25.0415471 21.3437502,24.7485813 21.296875,24.4204547 C21.2031245,23.9048271 21.15625,23.1313973 21.15625,22.1001422 C21.15625,22.0532669 21.2499991,21.9477992 21.4375,21.7837359 C21.6250009,21.6196726 21.71875,21.5142049 21.71875,21.4673297 C21.8593757,21.2329535 21.976562,20.83452 22.0703125,20.2720172 C22.2109382,19.6157639 22.3046873,19.2642049 22.3515625,19.2173297 C22.6328139,18.9829535 22.8437493,18.678269 22.984375,18.3032672 C23.1250007,17.7407643 23.1015634,17.2954563 22.9140625,16.9673297 C22.8671873,16.8735792 22.8906245,16.5688947 22.984375,16.0532672 C23.2187512,15.2095129 23.2656257,14.3657714 23.125,13.5220172 C22.8437486,12.2563858 21.9765698,11.4829561 20.5234375,11.2017047 C19.0703052,10.9204532 17.9218792,11.248575 17.078125,12.1860797 C16.3749965,12.9360834 16.1640611,14.0376349 16.4453125,15.4907672 C16.4453125,15.5845176 16.4804684,15.7368598 16.5507812,15.9477984 C16.6210941,16.158737 16.6679686,16.3110792 16.6914062,16.4048297 C16.7148439,16.4985801 16.7031252,16.6392037 16.65625,16.8267047 L16.515625,17.1079547 C16.3749993,17.2954556 16.3281248,17.4360792 16.375,17.5298297 C16.4218752,17.6235801 16.4687498,17.8110782 16.515625,18.0923297 C16.5625002,18.3735811 16.6093748,18.5610792 16.65625,18.6548297 C16.7500005,18.8892058 16.9140613,19.0767039 17.1484375,19.2173297 C17.2890632,19.3110801 17.359375,19.5220155 17.359375,19.8501422 C17.5000007,20.6938964 17.6406243,21.2329535 17.78125,21.4673297 L17.9921875,21.6782672 C18.085938,21.7720176 18.1679684,21.8657667 18.2382812,21.9595172 C18.3085941,22.0532676 18.34375,22.1470167 18.34375,22.2407672 L18.34375,23.7173297 C18.2499995,24.5610839 18.0625014,25.1235782 17.78125,25.4048297 C17.3593729,25.7798315 16.7265667,26.0610787 15.8828125,26.2485797 C15.6953116,26.2954549 15.3320339,26.3657667 14.7929688,26.4595172 C14.2539036,26.5532676 13.8437514,26.6470167 13.5625,26.7407672 C13.0468724,26.9282681 12.5546898,27.2563898 12.0859375,27.7251422 Z M11.875,24.7720172 C11.1249962,25.1938943 10.5390646,25.6392023 10.1171875,26.1079547 C9.88281133,26.6235822 9.71875047,26.8813922 9.625,26.8813922 L4,26.8813922 C4,25.4751351 4.72655523,24.5376445 6.1796875,24.0688922 C6.22656273,24.0688922 6.43749812,24.0220176 6.8125,23.9282672 C7.18750188,23.8345167 7.51562359,23.7407676 7.796875,23.6470172 C8.07812641,23.5532667 8.24218727,23.4360804 8.2890625,23.2954547 L8.2890625,22.1704547 C7.35155781,22.2642051 6.60156531,22.1001443 6.0390625,21.6782672 L6.3203125,20.8345172 L6.53125,19.9907672 C6.57812523,19.56889 6.6015625,18.9126466 6.6015625,18.0220172 C6.6015625,16.3345087 6.78906062,15.20952 7.1640625,14.6470172 C7.67969008,13.8032629 8.57030617,13.3813922 9.8359375,13.3813922 C11.7578221,13.3813922 12.8593736,14.248571 13.140625,15.9829547 C13.2343755,16.4048318 13.28125,17.0259193 13.28125,17.8462359 L13.28125,19.3579547 C13.28125,19.8735822 13.3984363,20.4360766 13.6328125,21.0454547 C13.8203134,21.4204565 13.8906252,21.6313919 13.84375,21.6782672 L13.421875,21.8892047 C13.1874988,21.9829551 12.7890653,22.0767042 12.2265625,22.1704547 C11.8515606,22.1704547 11.6406252,22.1938919 11.59375,22.2407672 L11.59375,23.0142047 C11.59375,23.2954561 11.7109363,23.4595169 11.9453125,23.5063922 C12.039063,23.5532674 12.2148425,23.6001419 12.4726562,23.6470172 C12.73047,23.6938924 12.9531241,23.7524855 13.140625,23.8227984 C13.3281259,23.8931113 13.4687495,23.9751417 13.5625,24.0688922 C13.7031257,24.3032683 13.6562512,24.4204547 13.421875,24.4204547 C12.624996,24.5142051 12.1093762,24.6313914 11.875,24.7720172 Z M8.9921875,25.7563922 C9.36718938,25.1470141 9.97655828,24.5845197 10.8203125,24.0688922 C10.4921859,23.7407655 10.3984368,22.8735867 10.5390625,21.4673297 C10.5390625,21.2329535 10.585937,21.1157672 10.6796875,21.1157672 L11.2421875,21.1157672 C11.4765637,21.1157672 11.8749972,21.0688926 12.4375,20.9751422 C12.2499991,20.4126393 12.1679686,19.592335 12.1914062,18.5142047 C12.2148439,17.4360743 12.179688,16.61577 12.0859375,16.0532672 C11.8984366,14.9751368 11.1718813,14.4360797 9.90625,14.4360797 C8.73436914,14.4360797 8.03125117,15.0220113 7.796875,16.1938922 C7.70312453,16.6157693 7.67968727,17.4126363 7.7265625,18.5845172 C7.77343773,19.756398 7.70312594,20.553265 7.515625,20.9751422 C8.35937922,21.0688926 8.96874812,21.1157672 9.34375,21.1157672 C9.39062523,21.1157672 9.4140625,21.7954479 9.4140625,23.1548297 C9.36718727,23.9048334 8.92187922,24.4204532 8.078125,24.7017047 C7.9374993,24.7485799 7.65625211,24.807173 7.234375,24.8774859 C6.81249789,24.9477988 6.46093891,25.0532664 6.1796875,25.1938922 C5.89843609,25.3345179 5.6875007,25.522016 5.546875,25.7563922 L8.9921875,25.7563922 Z M29.875,26.8813922 C29.7812495,26.5532655 29.4062533,26.1079575 28.75,25.5454547 C27.953121,24.9360766 27.2968776,24.5845176 26.78125,24.4907672 L26.4296875,24.4907672 C26.2421866,24.4907672 26.0898443,24.4673299 25.9726562,24.4204547 C25.8554682,24.3735794 25.8203123,24.2798304 25.8671875,24.1392047 C25.960938,23.9985789 26.2656224,23.8579554 26.78125,23.7173297 C27.4843785,23.5298287 27.8593748,23.3657679 27.90625,23.2251422 L27.90625,22.2407672 C27.6249986,22.2407672 27.2031278,22.1938926 26.640625,22.1001422 C26.3593736,22.0063917 26.1015637,21.9126426 25.8671875,21.8188922 C25.6796866,21.7251417 25.6796866,21.4673318 25.8671875,21.0454547 C26.0078132,20.717328 26.1249995,19.5220275 26.21875,17.4595172 C26.3125005,15.3970068 26.9453066,14.1313945 28.1171875,13.6626422 C29.2890684,13.1938898 30.4140571,13.2642016 31.4921875,13.8735797 C32.4296922,14.4360825 32.8984375,15.4673222 32.8984375,16.9673297 C32.8984375,17.1548306 32.8867189,17.5063896 32.8632812,18.0220172 C32.8398436,18.5376447 32.828125,18.9360782 32.828125,19.2173297 C32.828125,19.4985811 32.8749995,19.85014 32.96875,20.2720172 C33.0625005,20.6938943 33.2031241,21.0454532 33.390625,21.3267047 C33.5312507,21.5610808 33.5312507,21.7017044 33.390625,21.7485797 C33.3437498,21.7954549 33.273438,21.8188922 33.1796875,21.8188922 C33.085937,21.8188922 33.0156252,21.8423294 32.96875,21.8892047 L32.125,22.1001422 C31.9374991,22.1470174 31.6328146,22.1704547 31.2109375,22.1704547 C31.2109375,22.9204584 31.2343748,23.3188919 31.28125,23.3657672 C31.4218757,23.5063929 31.6093738,23.6235792 31.84375,23.7173297 C32.0781262,23.8110801 32.3476547,23.8813919 32.6523438,23.9282672 C32.9570328,23.9751424 33.1796868,24.0220169 33.3203125,24.0688922 C34.7734448,24.5376445 35.5,25.4751351 35.5,26.8813922 L29.875,26.8813922 Z M29.8046875,24.9829547 C30.3203151,25.4985822 30.6718741,25.7563922 30.859375,25.7563922 L33.953125,25.7563922 C33.8124993,25.522016 33.5898453,25.3345179 33.2851562,25.1938922 C32.9804672,25.0532664 32.6171896,24.9477988 32.1953125,24.8774859 C31.7734354,24.807173 31.4687509,24.7251426 31.28125,24.6313922 C30.5781215,24.3501407 30.179688,23.7876464 30.0859375,22.9438922 C30.0859375,21.6782608 30.1093748,21.0454547 30.15625,21.0454547 C31.0000042,21.0454547 31.6093731,21.0220174 31.984375,20.9751422 C31.7968741,20.4126393 31.7265623,19.592335 31.7734375,18.5142047 C31.8203127,17.4360743 31.7968755,16.61577 31.703125,16.0532672 C31.4687488,14.9751368 30.7656309,14.4360797 29.59375,14.4360797 C28.3281187,14.4360797 27.6015634,15.0220113 27.4140625,16.1938922 C27.320312,16.6157693 27.2851561,17.4126363 27.3085938,18.5845172 C27.3320314,19.756398 27.2500009,20.553265 27.0625,20.9751422 C27.3437514,21.0688926 27.7656222,21.1157672 28.328125,21.1157672 C28.7031269,21.1157672 28.9140623,21.2329535 28.9609375,21.4673297 C29.1015632,22.8735867 29.0078141,23.7407655 28.6796875,24.0688922 C29.1015646,24.3501436 29.4765609,24.654828 29.8046875,24.9829547 Z" id="ion-ios-people-outline---Ionicons" fill="#FFFFFF" opacity="0.5"></path>
        </g>
    </g>
</svg>