<?xml version="1.0" encoding="UTF-8"?>
<svg width="40px" height="40px" viewBox="0 0 40 40" version="1.1" xmlns="http://www.w3.org/2000/svg" xmlns:xlink="http://www.w3.org/1999/xlink">
    <!-- Generator: Sketch 50.2 (55047) - http://www.bohemiancoding.com/sketch -->
    <title>icon/qun2</title>
    <desc>Created with Sketch.</desc>
    <defs></defs>
    <g id="icon/qun2" stroke="none" stroke-width="1" fill="none" fill-rule="evenodd">
        <g id="Group-4">
            <rect id="Rectangle-5" x="0" y="0" width="40" height="40"></rect>
            <path d="M26.2890625,25.6860797 C27.2734424,26.0610815 28.0585908,26.6587318 28.6445312,27.4790484 C29.2304717,28.299365 29.5234375,29.225137 29.5234375,30.2563922 L9.9765625,30.2563922 C9.9765625,28.5688837 10.6093687,27.2798341 11.875,26.3892047 C12.3437523,26.061078 13.4921784,25.6860818 15.3203125,25.2642047 C16.4453181,25.1235789 17.054687,24.8188945 17.1484375,24.3501422 C17.1953127,24.1626412 17.21875,23.6235841 17.21875,22.7329547 C17.21875,22.5923289 17.1718755,22.4751426 17.078125,22.3813922 C16.8906241,22.1938912 16.7031259,21.8657695 16.515625,21.3970172 C16.4218745,21.0220153 16.3281255,20.4595209 16.234375,19.7095172 C16.0468741,19.7563924 15.8945318,19.6860806 15.7773438,19.4985797 C15.6601557,19.3110787 15.5664066,19.0649874 15.4960938,18.7602984 C15.4257809,18.4556094 15.390625,18.2798299 15.390625,18.2329547 C15.2031241,17.2016995 15.2734359,16.7095169 15.6015625,16.7563922 C15.4609368,16.5688912 15.3437505,16.1235832 15.25,15.4204547 C15.1093743,14.3891995 15.1796861,13.4751461 15.4609375,12.6782672 C15.7890641,11.7876377 16.3749958,11.107957 17.21875,10.6392047 C18.0625042,10.1704523 18.9765576,9.95951692 19.9609375,10.0063922 C20.8984422,10.0532674 21.7539024,10.3345146 22.5273438,10.8501422 C23.3007851,11.3657697 23.8281236,12.0688877 24.109375,12.9595172 C24.3437512,13.6157704 24.3671884,14.5298238 24.1796875,15.7017047 C24.085937,16.2642075 23.992188,16.6157664 23.8984375,16.7563922 C24.0390632,16.7095169 24.1445309,16.7563914 24.2148438,16.8970172 C24.2851566,17.0376429 24.3085939,17.2134223 24.2851562,17.4243609 C24.2617186,17.6352995 24.2382814,17.8227976 24.2148438,17.9868609 C24.1914061,18.1509242 24.1562502,18.2798292 24.109375,18.3735797 L23.96875,18.8657672 C23.9218748,19.1938938 23.8398443,19.4282664 23.7226562,19.5688922 C23.6054682,19.7095179 23.4531259,19.7563924 23.265625,19.7095172 C23.1718745,20.7407723 23.0078137,21.4673275 22.7734375,21.8892047 C22.7734375,21.9360799 22.6914071,22.0532662 22.5273438,22.2407672 C22.3632804,22.4282681 22.28125,22.5454544 22.28125,22.5923297 L22.28125,23.3657672 C22.28125,23.8345195 22.3281245,24.1860785 22.421875,24.4204547 C22.5156255,24.6548308 22.8437472,24.8423289 23.40625,24.9829547 C23.7343766,25.1235804 24.2148406,25.2407667 24.8476562,25.3345172 C25.4804719,25.4282676 25.9609359,25.5454539 26.2890625,25.6860797 Z M11.8046875,24.7720172 L11.9453125,24.7720172 L11.8046875,24.7720172 Z M11.6536688,24.8605496 L11.7407152,24.8257311 C11.7006793,24.8547014 11.651691,24.8836716 11.59375,24.9126422 L11.5683058,24.9126422 C11.5965734,24.8951379 11.6250277,24.8777737 11.6536688,24.8605496 Z M11.5683058,24.9126422 C11.0123607,25.2569021 10.5286584,25.6553366 10.1171875,26.1079547 C9.88281133,26.6235822 9.71875047,26.8813922 9.625,26.8813922 L4,26.8813922 C4,25.4751351 4.70311797,24.5376445 6.109375,24.0688922 C6.15625023,24.0688922 6.36718562,24.0220176 6.7421875,23.9282672 C7.11718938,23.8345167 7.44531109,23.7407676 7.7265625,23.6470172 C8.00781391,23.5532667 8.17187477,23.4360804 8.21875,23.2954547 C8.26562523,23.1548289 8.2890625,22.7798327 8.2890625,22.1704547 C7.35155781,22.2642051 6.60156531,22.1001443 6.0390625,21.6782672 L6.3203125,20.8345172 C6.36718773,20.7407667 6.41406227,20.6118617 6.4609375,20.4477984 C6.50781273,20.2837351 6.53125,20.1548301 6.53125,20.0610797 C6.57812523,19.6392025 6.6015625,18.9829591 6.6015625,18.0923297 C6.6015625,16.357946 6.78906062,15.20952 7.1640625,14.6470172 C7.67969008,13.8032629 8.57030617,13.3813922 9.8359375,13.3813922 C11.7578221,13.3813922 12.8593736,14.248571 13.140625,15.9829547 C13.2343755,16.4048318 13.28125,17.0259193 13.28125,17.8462359 L13.28125,19.3579547 C13.28125,19.8735822 13.3984363,20.4360766 13.6328125,21.0454547 C13.8203134,21.4204565 13.8906252,21.6313919 13.84375,21.6782672 L13.421875,21.8892047 C13.1874988,21.9829551 12.7890653,22.0767042 12.2265625,22.1704547 C11.8515606,22.1704547 11.6406252,22.1938919 11.59375,22.2407672 L11.59375,23.0142047 C11.59375,23.2954561 11.7109363,23.4595169 11.9453125,23.5063922 C12.039063,23.5532674 12.2148425,23.6001419 12.4726562,23.6470172 C12.73047,23.6938924 12.9531241,23.7524855 13.140625,23.8227984 C13.3281259,23.8931113 13.4687495,23.9751417 13.5625,24.0688922 C13.7031257,24.3032683 13.6562512,24.4204547 13.421875,24.4204547 C12.7656217,24.5142051 12.2734391,24.6313914 11.9453125,24.7720172 L11.875,24.7720172 L11.7407152,24.8257311 C11.7654587,24.8078265 11.7867828,24.7899219 11.8046875,24.7720172 C11.7537838,24.801105 11.7034443,24.8306158 11.6536688,24.8605496 L11.5234375,24.9126422 L11.5683058,24.9126422 Z M33.3203125,24.0688922 C34.7734448,24.5376445 35.5,25.4751351 35.5,26.8813922 L29.875,26.8813922 C29.7812495,26.5532655 29.4062533,26.1079575 28.75,25.5454547 C27.953121,24.9360766 27.2968776,24.5845176 26.78125,24.4907672 L26.4296875,24.4907672 C26.2421866,24.4907672 26.0898443,24.4673299 25.9726562,24.4204547 C25.8554682,24.3735794 25.8203123,24.2798304 25.8671875,24.1392047 C25.960938,23.9985789 26.2656224,23.8579554 26.78125,23.7173297 C27.4843785,23.5298287 27.8593748,23.3657679 27.90625,23.2251422 L27.90625,22.2407672 C27.6249986,22.2407672 27.2031278,22.1938926 26.640625,22.1001422 C26.3593736,22.0063917 26.1015637,21.9126426 25.8671875,21.8188922 C25.6796866,21.7251417 25.6796866,21.4673318 25.8671875,21.0454547 C26.0078132,20.717328 26.1249995,19.5220275 26.21875,17.4595172 C26.3125005,15.3970068 26.9453066,14.1313945 28.1171875,13.6626422 C29.2890684,13.1938898 30.4140571,13.2642016 31.4921875,13.8735797 C32.4296922,14.4360825 32.8984375,15.4673222 32.8984375,16.9673297 C32.8984375,17.1548306 32.8867189,17.5063896 32.8632812,18.0220172 C32.8398436,18.5376447 32.828125,18.9360782 32.828125,19.2173297 C32.828125,19.4985811 32.8749995,19.85014 32.96875,20.2720172 C33.0625005,20.6938943 33.2031241,21.0454532 33.390625,21.3267047 C33.5312507,21.5610808 33.5312507,21.7017044 33.390625,21.7485797 C33.3437498,21.7954549 33.273438,21.8188922 33.1796875,21.8188922 C33.085937,21.8188922 33.0156252,21.8423294 32.96875,21.8892047 L32.125,22.1001422 C31.9374991,22.1470174 31.6328146,22.1704547 31.2109375,22.1704547 C31.2109375,22.9204584 31.2343748,23.3188919 31.28125,23.3657672 C31.4218757,23.5063929 31.6093738,23.6235792 31.84375,23.7173297 C32.0781262,23.8110801 32.3476547,23.8813919 32.6523438,23.9282672 C32.9570328,23.9751424 33.1796868,24.0220169 33.3203125,24.0688922 Z" id="ion-ios-people---Ionicons" fill="#FFFFFF"></path>
        </g>
    </g>
</svg>