<?xml version="1.0" encoding="UTF-8"?>
<svg width="60px" height="60px" viewBox="0 0 60 60" version="1.1" xmlns="http://www.w3.org/2000/svg" xmlns:xlink="http://www.w3.org/1999/xlink">
    <!-- Generator: Sketch 52.2 (67145) - http://www.bohemiancoding.com/sketch -->
    <title>icon/tupian</title>
    <desc>Created with Sketch.</desc>
    <g id="icon/tupian" stroke="none" stroke-width="1" fill="none" fill-rule="evenodd">
        <rect id="Rectangle-Copy" fill="#FFFFFF" fill-rule="nonzero" x="0" y="0" width="60" height="60" rx="2"></rect>
        <g id="Group-3" transform="translate(15.000000, 17.000000)" fill="#303A60">
            <path d="M24.4949318,7.82058462 C23.3796364,7.81504615 22.6018182,7.08535385 22.6602955,5.95066154 C22.7187727,4.83535385 23.5395682,4.28358462 24.7077045,4.15273846 C25.7180227,4.43312308 26.4556818,5.00289231 26.3767727,6.17012308 C26.3020909,7.27850769 25.4798864,7.82543077 24.4949318,7.82058462 M24.4963409,20.7688154 C21.3272955,20.8068923 18.1575455,20.7805846 14.9885,20.7812769 C11.8779318,20.7812769 8.76736364,20.8013538 5.65679545,20.7729692 C3.86584091,20.7570462 3.53329545,20.1471231 4.48231818,18.6697385 C6.32893182,15.7959692 8.16920455,12.9152769 10.0728864,10.0782 C11.2868182,8.26781538 11.8772273,8.2962 13.0827045,10.1135077 C14.2346364,11.8498154 15.3936136,13.5847385 16.4631136,15.3708923 C16.9739091,16.2245077 17.3353409,16.1428154 17.8116136,15.4214308 C18.3844091,14.5518923 18.9142273,13.6518923 19.5349318,12.8169692 C20.2141136,11.9031231 20.9982727,11.8830462 21.6506818,12.8488154 C23.0125682,14.8641231 24.37375,16.8822 25.6553182,18.9466615 C26.38875,20.1277385 25.98575,20.7508154 24.4963409,20.7688154 M27.02425,0.00650769231 C23.0935909,-0.00595384615 19.1629318,0.00304615385 15.2322727,0.00373846154 C11.3016136,0.00443076923 7.37095455,-0.00387692308 3.44029545,0.00789230769 C0.939863636,0.0148153846 0.0176136364,0.890584615 0.0119772727,3.31989231 C-0.00422727273,10.1225077 -0.00352272727,16.9244308 0.0119772727,23.7277385 C0.0176136364,26.0518154 0.946204545,26.9490462 3.34025,26.9532 C11.2600455,26.9663538 19.1805455,26.9691231 27.1003409,26.9525077 C29.70575,26.9469692 30.5948864,26.0705077 30.6012273,23.5138154 C30.6188409,16.8268154 30.6181364,10.1398154 30.6019318,3.45212308 C30.5962955,1.03943077 29.5169318,0.0148153846 27.02425,0.00650769231" id="Fill-1"></path>
        </g>
    </g>
</svg>