<?xml version="1.0" encoding="UTF-8"?>
<svg width="60px" height="60px" viewBox="0 0 60 60" version="1.1" xmlns="http://www.w3.org/2000/svg" xmlns:xlink="http://www.w3.org/1999/xlink">
    <!-- Generator: Sketch 50.2 (55047) - http://www.bohemiancoding.com/sketch -->
    <title>icon/tupian</title>
    <desc>Created with Sketch.</desc>
    <defs></defs>
    <g id="icon/tupian" stroke="none" stroke-width="1" fill="none" fill-rule="evenodd">
        <g id="Group-7">
            <rect id="Rectangle-84" stroke="#AEB1B5" x="0.5" y="0.5" width="59" height="59" rx="10"></rect>
            <g id="Icon-/-Photo" transform="translate(15.000000, 19.000000)" fill="#6F7378">
                <path d="M28.0035,2.0495 L28.0035,13.643 L23.0415,9.258 L18.6665,12.341 L20.2915,15.591 L10.125,6.216 L2.0035,14.0265 L2.0035,2.0495 L28.0035,2.0495 Z M28.5,0 L1.5,0 C0.675,0 0,0.675 0,1.5 L0,20.5 C0,21.325 0.675,22 1.5,22 L28.5,22 C29.325,22 30,21.325 30,20.5 L30,1.5 C30,0.675 29.325,0 28.5,0 L28.5,0 Z"></path>
            </g>
        </g>
    </g>
</svg>