<?xml version="1.0" encoding="UTF-8"?>
<svg width="20px" height="20px" viewBox="0 0 20 20" version="1.1" xmlns="http://www.w3.org/2000/svg" xmlns:xlink="http://www.w3.org/1999/xlink">
    <!-- Generator: Sketch 50.2 (55047) - http://www.bohemiancoding.com/sketch -->
    <title>icon/photo</title>
    <desc>Created with Sketch.</desc>
    <defs></defs>
    <g id="icon/photo" stroke="none" stroke-width="1" fill="none" fill-rule="evenodd">
        <g fill="#999999" fill-rule="nonzero" id="Shape">
            <path d="M5.62847608,3.24444444 C5.91027067,3.24444444 6.18094179,3.3 6.44048943,3.41111111 C6.70003708,3.52222222 6.92250649,3.67037037 7.10789766,3.85555556 C7.29328884,4.04074074 7.44160178,4.25925926 7.55283648,4.51111111 C7.66407119,4.76296296 7.71968854,5.02962963 7.71968854,5.31111111 C7.71968854,5.88888889 7.51575825,6.37777778 7.10789766,6.77777778 C6.70003708,7.17777778 6.20689655,7.37777778 5.62847608,7.37777778 C5.3466815,7.37777778 5.07971821,7.32592593 4.82758621,7.22222222 C4.57545421,7.11851852 4.35669262,6.97037037 4.17130145,6.77777778 C3.98591027,6.58518519 3.83759733,6.36666667 3.72636263,6.12222222 C3.61512792,5.87777778 3.55951057,5.60740741 3.55951057,5.31111111 C3.55951057,5.02962963 3.61512792,4.76296296 3.72636263,4.51111111 C3.83759733,4.25925926 3.98591027,4.04074074 4.17130145,3.85555556 C4.35669262,3.67037037 4.57545421,3.52222222 4.82758621,3.41111111 C5.07971821,3.3 5.3466815,3.24444444 5.62847608,3.24444444 Z M17.9087875,0 C18.6651835,0 19.2028179,0.211111111 19.5216908,0.633333333 C19.8405636,1.05555556 20,1.60740741 20,2.28888889 L20,18.2444444 C20,18.4518519 19.9517983,18.662963 19.8553949,18.8777778 C19.7589915,19.0925926 19.6255098,19.2814815 19.4549499,19.4444444 C19.2843901,19.6074074 19.0878754,19.7407407 18.865406,19.8444444 C18.6429366,19.9481481 18.3982202,20 18.131257,20 L1.7352614,20 C1.27549129,20 0.871338524,19.8148148 0.522803115,19.4444444 C0.174267705,19.0740741 1.54369164e-16,18.6296296 0,18.1111111 L0,1.84444444 C0,1.31111111 0.14831294,0.87037037 0.444938821,0.522222222 C0.741564702,0.174074074 1.13459399,3.08395285e-16 1.6240267,1.54197642e-16 L17.9087875,0 Z M17.9977753,2.6 C17.9977753,2.43703704 17.9347423,2.29259259 17.8086763,2.16666667 C17.6826103,2.04074074 17.5305895,1.97777778 17.352614,1.97777778 L2.62513904,1.97777778 C2.44716352,1.97777778 2.29885057,2.04074074 2.18020022,2.16666667 C2.06154987,2.29259259 2.00222469,2.43703704 2.00222469,2.6 L2.00222469,2.62222222 L2.00222469,10.5777778 C2.15053763,10.7555556 2.34705228,10.9592593 2.59176863,11.1888889 C2.83648498,11.4185185 3.12569522,11.6333333 3.45939933,11.8333333 C3.79310345,12.0333333 4.17130145,12.2037037 4.59399333,12.3444444 C5.01668521,12.4851852 5.48757879,12.5555556 6.00667408,12.5555556 C6.80756396,12.5555556 7.51205043,12.4259259 8.12013348,12.1666667 C8.72821654,11.9074074 9.30292918,11.5888889 9.84427141,11.2111111 C10.3856136,10.8333333 10.9158324,10.4185185 11.4349277,9.96666667 C11.954023,9.51481481 12.52132,9.09259259 13.1368187,8.7 C13.7523174,8.30740741 14.453096,7.97407407 15.2391546,7.7 C16.0252132,7.42592593 16.9447534,7.26666667 17.9977753,7.22222222 L17.9977753,2.6 Z"></path>
        </g>
    </g>
</svg>