<?xml version="1.0" encoding="UTF-8"?>
<svg width="60px" height="60px" viewBox="0 0 60 60" version="1.1" xmlns="http://www.w3.org/2000/svg" xmlns:xlink="http://www.w3.org/1999/xlink">
    <!-- Generator: Sketch 50.2 (55047) - http://www.bohemiancoding.com/sketch -->
    <title>icon/shipin</title>
    <desc>Created with Sketch.</desc>
    <defs></defs>
    <g id="icon/shipin" stroke="none" stroke-width="1" fill="none" fill-rule="evenodd">
        <g id="Group-9">
            <rect id="Rectangle-84" stroke="#AEB1B5" x="0.5" y="0.5" width="59" height="59" rx="10"></rect>
            <g id="Icon-/-Video-Chat" transform="translate(15.000000, 21.000000)" fill="#6F7378">
                <path d="M20.3225806,15.483871 C20.3225806,16.2856452 19.6727419,16.9354839 18.8709677,16.9354839 L1.4516129,16.9354839 C0.64983871,16.9354839 0,16.2856452 0,15.483871 L0,1.93548387 C0,1.13370968 0.64983871,0.483870968 1.4516129,0.483870968 L18.8709677,0.483870968 C19.6727419,0.483870968 20.3225806,1.13370968 20.3225806,1.93548387 L20.3225806,15.483871 Z M28.0242097,0.35710827 C28.8709839,-0.368698182 29.9998548,0.0343663344 29.9998548,1.3616244 L29.9998548,7.83291472 L29.9998548,9.30872117 L29.9998548,15.7800115 C29.9998548,17.1067857 28.8709839,17.5103341 28.0242097,16.7845276 C27.1774355,16.0587212 22.2579194,11.1996889 22.2579194,11.1996889 L22.2579194,9.30872117 L22.2579194,7.83291472 L22.2579194,5.94194698 C22.2579194,5.94194698 27.1774355,1.08291472 28.0242097,0.35710827 Z"></path>
            </g>
        </g>
    </g>
</svg>