<?xml version="1.0" encoding="UTF-8"?>
<svg width="25px" height="25px" viewBox="0 0 25 25" version="1.1" xmlns="http://www.w3.org/2000/svg" xmlns:xlink="http://www.w3.org/1999/xlink">
    <!-- Generator: Sketch 50.2 (55047) - http://www.bohemiancoding.com/sketch -->
    <title>icon/yuyin1</title>
    <desc>Created with Sketch.</desc>
    <defs></defs>
    <g id="icon/yuyin1" stroke="none" stroke-width="1" fill="none" fill-rule="evenodd">
        <g id="icon/fasong/huise">
            <g id="icon/fasong">
                <rect id="Rectangle-13" stroke="#BBBBBB" stroke-width="0.714285714" x="0.357142857" y="0.357142857" width="24.2857143" height="24.2857143" rx="12.1428571"></rect>
                <path d="M17.4364261,12.3762887 L19,12.3762887 C19,13.4186765 18.7468525,14.4014845 18.2405498,15.3247423 C17.7491384,16.2033263 17.0753193,16.9367095 16.2190722,17.5249141 C15.362825,18.1131186 14.4284129,18.4742261 13.4158076,18.6082474 L13.4158076,21.2489874 C13.4158076,21.7547739 13.0057865,22.1647949 12.5,22.1647949 L12.5,22.1647949 C11.9942135,22.1647949 11.5841924,21.7547739 11.5841924,21.2489874 L11.5841924,18.6082474 C10.5715871,18.4742261 9.63717496,18.1131186 8.78092784,17.5249141 C7.92468071,16.9367095 7.25086156,16.2033263 6.75945017,15.3247423 C6.25314753,14.4014845 6,13.4186765 6,12.3762887 L7.56357388,12.3762887 C7.56357388,13.2846552 7.80183038,14.1036619 8.27835052,14.8333333 C8.72508814,15.5332223 9.32445214,16.0841904 10.0764605,16.4862543 C10.8284688,16.8883182 11.6363073,17.0893471 12.5,17.0893471 C13.3636927,17.0893471 14.1715312,16.8883182 14.9235395,16.4862543 C15.6755479,16.0841904 16.2749119,15.5332223 16.7216495,14.8333333 C17.1981696,14.1036619 17.4364261,13.2846552 17.4364261,12.3762887 Z M12.5,15.1683849 C12.0085886,15.1683849 11.5469666,15.0418111 11.1151203,14.7886598 C10.6832739,14.5355085 10.3407802,14.1930148 10.0876289,13.7611684 C9.83447754,13.329322 9.70790378,12.8677001 9.70790378,12.3762887 L9.70790378,6.79209622 C9.70790378,6.30068483 9.83447754,5.83906287 10.0876289,5.40721649 C10.3407802,4.97537012 10.6832739,4.63287641 11.1151203,4.37972509 C11.5469666,4.12657376 12.0085886,4 12.5,4 C12.9914114,4 13.4530334,4.12657376 13.8848797,4.37972509 C14.3167261,4.63287641 14.6592198,4.97537012 14.9123711,5.40721649 C15.1655225,5.83906287 15.2920962,6.30068483 15.2920962,6.79209622 L15.2920962,12.3762887 C15.2920962,12.8677001 15.1655225,13.329322 14.9123711,13.7611684 C14.6592198,14.1930148 14.3167261,14.5355085 13.8848797,14.7886598 C13.4530334,15.0418111 12.9914114,15.1683849 12.5,15.1683849 Z" id="mic---material" fill="#ABABAB"></path>
            </g>
        </g>
    </g>
</svg>